
<svg version="1.0" xmlns="http://www.w3.org/2000/svg"
     fill="none"
    height={size || height}
    viewBox="0 0 32 32"
    width={size || width}
    {...props}
 preserveAspectRatio="xMidYMid meet">

<g transform="translate(0.000000,500.000000) scale(0.100000,-0.100000)"
fill="#000000" stroke="none">
<path d="M3020 3545 c0 -27 5 -57 11 -65 7 -11 9 -2 7 34 l-3 49 20 -28 c56
-77 54 -76 55 -7 0 34 -4 62 -10 62 -6 0 -7 -20 -4 -47 l5 -48 -18 25 c-10 13
-28 36 -40 50 l-22 25 -1 -50z"/>
<path d="M2835 3520 c0 -49 3 -60 16 -60 14 0 15 7 8 45 -5 25 -6 52 -3 60 4
9 1 15 -7 15 -10 0 -14 -16 -14 -60z"/>
<path d="M2901 3561 c-16 -29 -13 -56 7 -81 40 -50 98 4 76 69 -12 34 -67 43
-83 12z m69 -12 c14 -26 6 -65 -16 -73 -32 -12 -58 31 -43 72 11 28 45 29 59
1z"/>
<path d="M2681 3525 l-2 -50 -17 24 c-55 80 -69 80 -54 -1 l10 -53 1 45 2 45
17 -24 c30 -44 50 -66 54 -61 3 3 1 32 -2 65 l-7 60 -2 -50z"/>
<path d="M2730 3555 c-16 -19 0 -40 35 -49 14 -4 25 -13 25 -22 0 -19 -28 -30
-43 -15 -17 17 -31 13 -17 -4 26 -31 88 -8 74 28 -3 9 -19 20 -35 26 -16 6
-29 17 -29 27 0 13 6 15 30 10 19 -3 29 -2 25 4 -9 15 -51 12 -65 -5z"/>
<path d="M2510 3500 l0 -60 35 0 c19 0 35 4 35 9 0 4 -11 6 -24 4 -33 -7 -44
34 -13 47 l22 9 -22 0 c-35 1 -31 39 5 44 25 4 25 4 -5 6 l-33 1 0 -60z"/>
<path d="M2305 3490 c0 -53 2 -60 20 -60 15 0 17 2 6 9 -9 6 -12 24 -10 60 3
30 0 51 -6 51 -6 0 -10 -27 -10 -60z"/>
<path d="M2360 3490 c0 -37 4 -60 11 -60 7 0 8 14 4 40 -8 49 0 51 19 5 8 -19
19 -35 24 -35 5 0 16 17 25 38 l15 37 1 -32 c1 -37 21 -56 21 -20 0 37 -12 87
-20 87 -4 0 -13 -20 -20 -45 -7 -25 -16 -45 -20 -45 -5 0 -16 20 -27 45 -10
25 -21 45 -25 45 -5 0 -8 -27 -8 -60z"/>
<path d="M2180 3496 c0 -77 20 -94 68 -60 45 32 17 104 -41 104 -25 0 -27 -3
-27 -44z m57 26 c6 -4 14 -19 18 -34 6 -21 2 -30 -19 -44 -15 -9 -28 -15 -30
-13 -7 8 -14 88 -8 93 7 8 25 7 39 -2z"/>
<path d="M1950 3470 l0 -60 38 2 c36 1 36 1 5 5 -39 5 -45 34 -10 51 l22 11
-22 0 c-35 1 -31 39 5 44 25 4 25 4 -5 6 l-33 1 0 -60z"/>
<path d="M2040 3483 c0 -65 10 -78 46 -65 l29 10 -27 1 c-36 1 -41 40 -5 42
21 1 21 1 -3 8 -36 10 -38 39 -3 44 27 4 27 4 -4 6 -33 1 -33 1 -33 -46z"/>
<path d="M1751 3498 c1 -37 17 -106 18 -79 0 13 9 30 19 37 16 13 16 13 0 14
-31 0 -22 38 10 43 22 3 20 4 -10 6 -33 1 -38 -2 -37 -21z"/>
<path d="M1840 3465 c0 -32 4 -55 11 -55 5 0 9 10 7 22 -4 31 16 33 32 3 7
-14 18 -25 23 -25 5 0 3 10 -5 23 -11 16 -12 27 -5 38 16 26 1 49 -33 49 -30
0 -30 0 -30 -55z m55 25 c0 -8 -10 -16 -22 -18 -18 -3 -23 2 -23 18 0 16 5 21
23 18 12 -2 22 -10 22 -18z"/>
<path d="M2465 3175 c-71 -7 -131 -13 -133 -14 -2 0 -2 -13 0 -28 3 -26 7 -28
50 -31 25 -2 51 -9 57 -16 15 -18 48 -633 35 -646 -6 -6 -30 -14 -55 -18 -34
-6 -45 -12 -47 -28 -6 -42 11 -44 254 -29 252 15 315 29 407 87 136 87 217
261 189 409 -16 86 -47 146 -111 209 -61 61 -117 91 -199 109 -67 14 -278 12
-447 -4z m92 -93 c10 -246 37 -640 44 -653 7 -14 2 -18 -29 -23 -69 -11 -72
-10 -57 22 21 42 -15 654 -40 682 -16 18 -16 19 12 23 70 10 68 12 70 -51z
m448 19 c64 -36 120 -98 151 -165 19 -41 24 -67 24 -137 0 -79 -3 -92 -35
-156 -36 -73 -97 -138 -156 -169 -32 -16 -32 -15 13 28 26 25 59 70 75 99 26
50 28 62 28 169 0 96 -4 124 -23 172 -26 64 -64 116 -118 159 -47 37 -24 37
41 0z m-120 -5 c68 -31 112 -78 149 -156 28 -59 31 -74 30 -165 0 -119 -19
-170 -87 -239 -61 -61 -136 -88 -252 -90 l-90 -1 -17 290 c-9 160 -17 311 -17
338 l-1 47 118 0 c102 0 124 -3 167 -24z"/>
<path d="M1990 3144 c-107 -7 -205 -13 -216 -13 -24 -1 -37 -22 -28 -45 3 -8
21 -17 39 -20 19 -4 38 -12 42 -19 4 -6 15 -149 25 -317 l17 -305 -25 -22
c-14 -13 -31 -23 -38 -23 -20 0 -27 -25 -13 -45 11 -14 30 -15 166 -9 111 5
157 11 167 21 21 21 1 49 -39 57 -64 12 -67 18 -76 171 -5 77 -8 141 -7 142 1
2 54 6 117 9 121 7 132 4 140 -40 6 -29 35 -44 53 -26 22 22 8 228 -16 243
-20 13 -48 -6 -48 -33 0 -32 -27 -41 -139 -47 -61 -3 -111 -4 -112 -2 0 2 -4
54 -7 115 l-7 112 110 6 c61 4 119 4 129 0 10 -4 26 -26 37 -50 19 -46 42 -56
58 -26 11 21 2 152 -12 170 -11 14 -48 14 -317 -4z m290 -50 c0 -24 -1 -24
-22 -10 -15 11 -49 17 -103 18 l-80 2 95 6 c52 3 98 7 103 8 4 1 7 -10 7 -24z
m-285 -3 l-50 -6 4 -140 c2 -77 7 -148 12 -157 6 -10 22 -19 37 -19 l27 -1
-30 -7 c-27 -5 -30 -11 -33 -46 -1 -22 1 -98 6 -169 8 -123 10 -130 36 -153
l27 -23 -76 0 -75 0 16 25 c16 24 16 47 0 338 -13 226 -22 318 -32 334 -13 20
-12 22 14 26 15 2 59 4 97 4 64 0 66 -1 20 -6z m285 -311 c0 -26 -3 -29 -17
-21 -10 5 -27 13 -38 16 -17 6 -15 9 15 20 19 7 36 13 38 14 1 0 2 -13 2 -29z
m-112 -7 c-21 -2 -55 -2 -75 0 -21 2 -4 4 37 4 41 0 58 -2 38 -4z"/>
<path d="M3445 2229 c-132 -10 -274 -22 -315 -28 -102 -14 -488 -42 -547 -40
-79 4 -256 -12 -288 -26 -17 -7 -116 -18 -227 -24 -108 -7 -232 -19 -275 -28
-55 -11 -142 -17 -293 -18 -228 -2 -375 -17 -401 -41 -8 -8 -35 -14 -58 -14
-51 0 -81 -14 -81 -38 0 -10 -6 -24 -12 -31 -11 -10 15 -12 134 -10 88 2 148
-1 148 -7 0 -5 -12 -10 -27 -12 -111 -10 -136 -15 -158 -35 -42 -37 -20 -50
74 -49 63 2 83 -1 87 -13 3 -8 16 -18 27 -22 20 -6 20 -7 -8 -14 -55 -12 -73
-10 -80 11 -9 30 -45 26 -45 -5 0 -30 -16 -35 -240 -72 -197 -33 -172 -43 37
-14 180 24 220 28 229 18 4 -4 12 -3 18 2 6 5 16 10 21 10 6 1 26 6 45 11 45
13 70 13 70 0 0 -5 -7 -7 -15 -4 -12 5 -14 -1 -10 -35 5 -43 -12 -59 -22 -21
-3 11 -14 20 -25 20 -15 0 -12 -6 17 -31 20 -18 37 -30 38 -28 2 2 8 12 16 21
9 13 10 22 1 37 -9 19 -8 21 15 21 29 0 32 8 8 26 -16 12 -15 13 14 14 17 0
38 3 47 6 11 4 16 1 16 -10 0 -9 -4 -16 -10 -16 -5 0 -10 -5 -10 -11 0 -5 4
-8 9 -5 18 11 21 -261 3 -312 -10 -30 -9 -32 56 -85 176 -142 338 -204 677
-258 49 -8 167 -13 305 -13 188 0 244 4 343 22 235 44 453 131 635 253 78 52
93 65 88 83 -3 12 -11 54 -18 94 -12 75 -20 86 -38 52 -6 -11 -15 -18 -19 -15
-5 2 -14 -2 -21 -10 -7 -8 -9 -15 -4 -15 5 -1 -2 -7 -16 -15 -29 -16 -90 -20
-90 -5 0 6 -7 10 -15 10 -27 0 -65 32 -89 74 -30 52 -52 139 -37 144 7 2 6 11
-4 25 -8 12 -15 40 -15 62 0 46 -14 75 -28 60 -5 -6 -18 -40 -29 -76 -27 -91
-88 -196 -126 -220 -37 -22 -73 -25 -80 -6 -4 9 -7 9 -14 0 -13 -18 -30 -1
-29 27 1 21 7 26 40 30 25 3 43 12 50 25 6 11 16 23 21 27 6 4 -7 8 -27 8 -34
0 -38 3 -63 55 -34 68 -55 72 -55 11 0 -31 -5 -46 -16 -50 -24 -9 -31 0 -29
38 0 19 -2 33 -6 30 -4 -2 -10 17 -14 42 -3 25 -12 62 -20 83 l-13 37 117 13
c64 6 150 16 191 21 41 5 120 14 175 21 55 6 126 19 157 30 32 10 66 19 77 19
11 0 26 6 33 14 8 8 23 16 34 19 11 3 5 5 -16 6 -49 2 -18 21 34 21 31 0 36
-3 27 -13 -16 -20 -3 -27 27 -14 20 9 26 9 30 -1 4 -14 51 -16 86 -2 17 6 26
6 26 0 0 -6 7 -10 16 -10 9 0 12 5 8 12 -4 6 -3 8 3 5 6 -4 24 0 39 8 20 10
60 15 124 15 52 0 101 4 109 9 9 6 21 5 33 -2 14 -9 22 -9 36 1 36 26 79 40
144 47 85 9 79 27 -8 24 -35 -1 -67 1 -71 4 -9 10 -51 9 -71 -2 -34 -17 -82
-21 -82 -7 0 10 -11 12 -44 9 -24 -3 -51 -1 -60 4 -21 11 55 26 219 44 61 6
112 13 114 15 11 10 -530 -2 -734 -17z m183 -61 c-5 -14 -208 -20 -208 -6 0
10 36 15 128 17 62 1 83 -2 80 -11z m-304 -18 c-10 -10 -126 -29 -176 -30 -47
0 -31 18 25 28 72 13 164 15 151 2z m-244 -25 c0 -16 -127 -37 -255 -42 -240
-8 -527 -23 -604 -32 -46 -6 -90 -7 -99 -2 -10 6 -3 10 24 14 115 18 743 71
867 73 48 1 67 -2 67 -11z m-150 -84 c0 -5 -6 -11 -12 -14 -18 -6 -39 3 -32
14 7 12 44 12 44 0z m-1640 -11 c-8 -5 -28 -10 -45 -10 -23 0 -27 3 -15 10 8
5 29 10 45 10 23 0 27 -3 15 -10z m434 -29 c8 -12 -51 -61 -72 -61 -9 0 -66
-5 -127 -10 -113 -11 -180 -6 -140 10 11 5 34 9 52 9 22 1 31 5 27 14 -3 10
22 16 103 26 59 7 113 14 118 16 19 6 34 5 39 -4z m831 -22 c-47 -10 -95 -10
-95 0 0 10 98 20 115 11 6 -2 -3 -8 -20 -11z m-115 -9 c0 -5 -15 -11 -32 -11
-35 -2 -38 -2 -132 -14 -43 -6 -57 -5 -52 4 4 6 28 11 54 12 26 0 65 4 87 8
57 12 75 12 75 1z m-240 -30 c0 -5 -11 -10 -25 -10 -14 0 -25 5 -25 10 0 6 11
10 25 10 14 0 25 -4 25 -10z m-70 -12 c0 -4 -17 -8 -37 -7 -33 1 -35 2 -13 8
33 10 50 9 50 -1z m-86 -6 c5 -9 -223 -46 -232 -38 -12 12 11 19 105 31 128
17 121 16 127 7z m502 -84 c-1 -46 -5 -89 -9 -96 -5 -7 -2 -19 7 -27 8 -9 15
-30 15 -48 0 -18 4 -47 10 -66 6 -19 7 -39 4 -44 -12 -20 -13 -67 -2 -67 18 0
4 -101 -19 -146 -49 -95 -154 -146 -237 -114 -14 5 -24 14 -20 19 3 5 1 12 -5
16 -5 3 -10 1 -10 -5 0 -21 -35 8 -58 48 -16 29 -19 43 -11 48 9 5 8 10 -3 18
-21 16 -34 126 -16 137 11 8 11 10 0 18 -9 5 -15 35 -17 87 -2 43 -6 97 -9
119 -3 22 -3 31 1 20 6 -22 23 -36 35 -29 10 6 -20 66 -38 77 -8 4 -14 15 -14
22 0 8 -7 15 -16 15 -11 0 -15 -6 -11 -19 4 -17 2 -18 -20 -10 -34 13 -93 -5
-123 -36 -14 -15 -32 -24 -42 -22 -18 5 -33 -19 -17 -28 5 -4 7 -11 3 -16 -3
-5 -10 -7 -15 -3 -5 3 -9 2 -8 -3 3 -18 -2 -30 -18 -49 -10 -10 -25 -32 -33
-48 -26 -50 -89 -114 -125 -126 -71 -23 -158 26 -208 118 -29 54 -51 142 -35
142 5 0 6 5 3 10 -4 6 -10 8 -15 5 -4 -3 -10 2 -14 10 -3 8 -4 15 -2 15 2 0
61 9 132 20 156 24 148 24 140 3 -6 -14 -2 -12 17 5 32 30 44 28 39 -9 -3 -23
-1 -30 9 -27 7 2 13 17 14 33 0 34 -4 33 244 65 122 16 157 17 163 7 6 -9 8
-9 8 2 0 8 3 11 7 8 3 -4 12 -2 20 4 10 9 13 8 13 -1 0 -9 4 -9 13 -2 6 6 45
13 85 17 65 5 72 4 73 -12 1 -17 2 -17 6 0 3 11 11 16 19 13 7 -3 16 -1 19 4
4 6 21 10 40 10 l33 0 -2 -82z m-756 48 c0 -8 -16 -16 -42 -20 -24 -3 -103
-17 -175 -29 -73 -13 -133 -22 -133 -21 0 1 -3 9 -6 17 -8 21 90 35 113 15 14
-11 16 -11 11 3 -6 14 4 18 65 24 40 3 88 10 107 15 52 12 60 11 60 -4z m-408
-66 c-23 -21 -37 -27 -27 -10 3 6 -1 10 -9 10 -9 0 -16 -7 -16 -15 0 -8 -9
-15 -21 -15 -11 0 -18 4 -15 9 4 5 -12 12 -35 16 -22 4 -37 10 -34 13 6 7 166
20 174 14 3 -1 -5 -11 -17 -22z m1401 -140 c3 -11 1 -23 -5 -26 -5 -3 -7 -17
-3 -31 8 -33 -9 -21 -25 17 -10 24 -10 33 0 45 17 20 27 19 33 -5z"/>
<path d="M2515 1890 c-3 -6 1 -7 9 -4 18 7 21 14 7 14 -6 0 -13 -4 -16 -10z"/>
<path d="M2355 1861 c-6 -11 9 -23 19 -14 9 9 7 23 -3 23 -6 0 -12 -4 -16 -9z"/>
<path d="M2240 1850 c0 -5 -8 -10 -17 -10 -13 0 -14 -3 -6 -11 9 -9 16 -8 27
4 18 18 20 27 6 27 -5 0 -10 -4 -10 -10z"/>
<path d="M2275 1850 c3 -5 8 -10 11 -10 2 0 4 5 4 10 0 6 -5 10 -11 10 -5 0
-7 -4 -4 -10z"/>
<path d="M2025 1840 c3 -5 8 -10 11 -10 2 0 4 5 4 10 0 6 -5 10 -11 10 -5 0
-7 -4 -4 -10z"/>
<path d="M2305 1840 c-3 -5 1 -10 9 -10 8 0 18 5 21 10 3 6 -1 10 -9 10 -8 0
-18 -4 -21 -10z"/>
<path d="M2455 1818 c11 -36 22 -42 35 -18 10 18 9 24 -1 31 -26 16 -41 10
-34 -13z"/>
<path d="M1910 1815 c-8 -9 -8 -15 -2 -15 12 0 26 19 19 26 -2 2 -10 -2 -17
-11z"/>
<path d="M1830 1806 c0 -9 7 -16 16 -16 17 0 14 22 -4 28 -7 2 -12 -3 -12 -12z"/>
<path d="M2340 1810 c0 -5 5 -10 10 -10 6 0 10 5 10 10 0 6 -4 10 -10 10 -5 0
-10 -4 -10 -10z"/>
<path d="M2390 1810 c0 -5 5 -10 10 -10 6 0 10 5 10 10 0 6 -4 10 -10 10 -5 0
-10 -4 -10 -10z"/>
<path d="M2216 1768 c-3 -13 -2 -26 3 -31 11 -11 34 20 27 38 -8 22 -23 18
-30 -7z"/>
<path d="M1833 1767 c-13 -5 -23 -19 -23 -29 0 -12 5 -17 13 -14 6 3 20 9 30
12 19 7 21 13 9 30 -5 8 -14 8 -29 1z"/>
<path d="M2360 1751 c0 -5 7 -12 16 -15 24 -9 28 -7 14 9 -14 17 -30 20 -30 6z"/>
<path d="M2425 1740 c-3 -5 1 -10 9 -10 9 0 16 -8 16 -17 1 -17 1 -17 11 0 5
9 7 22 4 27 -8 13 -32 13 -40 0z"/>
<path d="M1518 1713 c-11 -15 -11 -16 4 -10 9 3 19 1 21 -6 2 -7 8 -9 12 -5 4
4 1 14 -8 22 -13 14 -16 14 -29 -1z"/>
<path d="M2257 1724 c-8 -8 3 -34 14 -34 11 0 12 27 0 34 -4 3 -11 3 -14 0z"/>
<path d="M1590 1710 c0 -5 5 -10 11 -10 5 0 7 5 4 10 -3 6 -8 10 -11 10 -2 0
-4 -4 -4 -10z"/>
<path d="M1860 1710 c-9 -6 -10 -10 -3 -10 6 0 15 5 18 10 8 12 4 12 -15 0z"/>
<path d="M2375 1710 c-3 -5 -1 -10 4 -10 6 0 11 5 11 10 0 6 -2 10 -4 10 -3 0
-8 -4 -11 -10z"/>
<path d="M2221 1694 c0 -11 3 -14 6 -6 3 7 2 16 -1 19 -3 4 -6 -2 -5 -13z"/>
<path d="M2446 1676 c3 -9 11 -16 16 -16 13 0 5 23 -10 28 -7 2 -10 -2 -6 -12z"/>
<path d="M2500 1670 c0 -16 -5 -20 -15 -16 -8 3 -15 2 -15 -3 0 -5 11 -12 25
-15 14 -4 25 -11 25 -16 0 -6 7 -10 15 -10 8 0 15 4 15 9 0 5 -7 14 -15 21 -8
7 -15 18 -15 26 0 7 -4 16 -10 19 -5 3 -10 -4 -10 -15z"/>
<path d="M1607 1673 c-4 -6 0 -24 8 -39 8 -16 15 -41 15 -56 0 -48 72 -66 110
-28 34 34 26 51 -20 44 -28 -5 -40 -3 -40 5 0 8 -8 10 -20 6 -15 -5 -18 -3
-14 9 3 9 10 16 15 16 5 0 9 7 9 15 0 9 -9 15 -24 15 -13 0 -26 5 -28 12 -3 8
-6 9 -11 1z"/>
<path d="M2330 1651 c0 -17 18 -21 24 -6 3 9 0 15 -9 15 -8 0 -15 -4 -15 -9z"/>
<path d="M2187 1626 c-4 -10 -1 -13 8 -9 8 3 12 9 9 14 -7 12 -11 11 -17 -5z"/>
<path d="M2480 1600 c0 -11 5 -20 10 -20 6 0 10 9 10 20 0 11 -4 20 -10 20 -5
0 -10 -9 -10 -20z"/>
<path d="M2241 1591 c-16 -12 -20 -20 -12 -25 6 -4 9 -11 6 -15 -6 -11 33 -46
42 -37 5 4 0 12 -10 17 -22 13 -24 61 -2 53 9 -4 15 0 15 10 0 21 -9 20 -39
-3z"/>
<path d="M2323 1581 c0 -9 4 -19 9 -22 6 -4 -2 -9 -16 -13 -14 -3 -26 -11 -26
-16 0 -13 27 -13 35 0 3 6 11 10 16 10 6 0 7 -4 4 -10 -3 -6 1 -7 9 -4 10 4
14 15 12 27 -3 12 -5 25 -5 28 -1 4 -9 9 -19 11 -12 4 -19 0 -19 -11z"/>
<path d="M1607 1573 c-4 -3 -7 -11 -7 -17 0 -6 5 -5 12 2 6 6 9 14 7 17 -3 3
-9 2 -12 -2z"/>
<path d="M2380 1570 c0 -5 7 -10 15 -10 8 0 15 5 15 10 0 6 -7 10 -15 10 -8 0
-15 -4 -15 -10z"/>
<path d="M2455 1550 c3 -5 8 -10 11 -10 2 0 4 5 4 10 0 6 -5 10 -11 10 -5 0
-7 -4 -4 -10z"/>
<path d="M1615 1520 c3 -5 10 -10 16 -10 5 0 9 5 9 10 0 6 -7 10 -16 10 -8 0
-12 -4 -9 -10z"/>
<path d="M2542 1510 c0 -14 2 -19 5 -12 2 6 2 18 0 25 -3 6 -5 1 -5 -13z"/>
<path d="M2235 1500 c-3 -5 -1 -10 4 -10 6 0 11 5 11 10 0 6 -2 10 -4 10 -3 0
-8 -4 -11 -10z"/>
<path d="M2340 1499 c0 -5 5 -7 10 -4 6 3 10 8 10 11 0 2 -4 4 -10 4 -5 0 -10
-5 -10 -11z"/>
<path d="M2320 1470 c0 -5 4 -10 9 -10 5 0 19 -20 31 -45 12 -25 27 -45 33
-46 7 0 2 -5 -10 -11 -19 -9 -30 -6 -63 16 -22 14 -42 26 -46 26 -3 0 -3 -17
0 -37 3 -21 7 -45 7 -54 0 -14 13 -16 76 -16 58 -1 78 -4 84 -16 7 -12 4 -14
-14 -10 -20 4 -20 3 -4 -7 14 -9 22 -9 33 0 18 16 18 40 -1 40 -11 0 -10 7 7
36 l21 35 -22 6 c-11 3 -21 10 -21 17 0 6 -6 4 -13 -6 -12 -15 -15 -14 -32 13
-11 16 -23 29 -27 29 -5 0 -8 5 -8 11 0 11 -24 39 -34 39 -3 0 -6 -4 -6 -10z"/>
<path d="M2520 1460 c0 -5 5 -10 10 -10 6 0 10 5 10 10 0 6 -4 10 -10 10 -5 0
-10 -4 -10 -10z"/>
<path d="M2220 1443 c0 -8 5 -13 12 -11 18 6 21 25 3 25 -8 0 -15 -7 -15 -14z"/>
<path d="M2490 1440 c0 -5 5 -10 10 -10 6 0 10 5 10 10 0 6 -4 10 -10 10 -5 0
-10 -4 -10 -10z"/>
<path d="M2510 1404 c0 -8 5 -12 10 -9 6 4 8 11 5 16 -9 14 -15 11 -15 -7z"/>
<path d="M2240 1330 c0 -5 5 -10 11 -10 5 0 7 5 4 10 -3 6 -8 10 -11 10 -2 0
-4 -4 -4 -10z"/>
<path d="M2488 1316 c-3 -14 -1 -26 4 -26 14 0 22 30 11 41 -7 7 -12 2 -15
-15z"/>
<path d="M3740 2050 c0 -5 5 -10 11 -10 5 0 7 5 4 10 -3 6 -8 10 -11 10 -2 0
-4 -4 -4 -10z"/>
<path d="M3557 2024 c-8 -8 1 -24 14 -24 5 0 9 7 9 15 0 15 -12 20 -23 9z"/>
<path d="M3685 2021 c-3 -5 -2 -12 2 -14 9 -5 53 10 53 18 0 9 -49 5 -55 -4z"/>
<path d="M3850 2020 c-12 -8 -12 -10 2 -15 20 -8 41 2 33 16 -8 11 -16 11 -35
-1z"/>
<path d="M3912 2009 c2 -7 10 -15 17 -17 8 -3 12 1 9 9 -2 7 -10 15 -17 17 -8
3 -12 -1 -9 -9z"/>
<path d="M3296 1985 c-3 -9 0 -15 9 -15 9 0 12 6 9 15 -4 8 -7 15 -9 15 -2 0
-5 -7 -9 -15z"/>
<path d="M3612 1971 c14 -24 17 -24 38 -11 18 11 13 16 -23 25 -27 7 -28 7
-15 -14z"/>
<path d="M3090 1961 c0 -6 5 -13 10 -16 6 -3 10 1 10 9 0 9 -4 16 -10 16 -5 0
-10 -4 -10 -9z"/>
<path d="M3120 1940 c0 -5 5 -10 11 -10 5 0 7 5 4 10 -3 6 -8 10 -11 10 -2 0
-4 -4 -4 -10z"/>
<path d="M2717 1924 c-3 -5 1 -15 9 -22 16 -14 18 -5 5 17 -5 7 -11 9 -14 5z"/>
<path d="M2930 1920 c0 -5 5 -10 10 -10 6 0 10 5 10 10 0 6 -4 10 -10 10 -5 0
-10 -4 -10 -10z"/>
<path d="M3370 1919 c0 -5 5 -7 10 -4 6 3 10 8 10 11 0 2 -4 4 -10 4 -5 0 -10
-5 -10 -11z"/>
<path d="M3565 1920 c4 -6 11 -8 16 -5 14 9 11 15 -7 15 -8 0 -12 -5 -9 -10z"/>
<path d="M3085 1911 c-6 -11 9 -23 19 -14 9 9 7 23 -3 23 -6 0 -12 -4 -16 -9z"/>
<path d="M2870 1895 c-8 -9 -8 -15 0 -20 12 -8 50 3 50 15 0 14 -39 18 -50 5z"/>
<path d="M3310 1890 c0 -5 5 -10 10 -10 6 0 10 5 10 10 0 6 -4 10 -10 10 -5 0
-10 -4 -10 -10z"/>
<path d="M2935 1879 c-12 -19 5 -23 22 -6 16 16 16 17 1 17 -9 0 -20 -5 -23
-11z"/>
<path d="M3225 1880 c-3 -5 -1 -10 4 -10 6 0 11 5 11 10 0 6 -2 10 -4 10 -3 0
-8 -4 -11 -10z"/>
<path d="M2810 1868 c0 -4 7 -8 15 -8 8 0 15 4 15 8 0 5 -7 9 -15 9 -8 0 -15
-4 -15 -9z"/>
<path d="M3505 1870 c3 -5 8 -10 11 -10 2 0 4 5 4 10 0 6 -5 10 -11 10 -5 0
-7 -4 -4 -10z"/>
<path d="M2720 1860 c0 -5 5 -10 11 -10 5 0 7 5 4 10 -3 6 -8 10 -11 10 -2 0
-4 -4 -4 -10z"/>
<path d="M3331 1856 c-10 -12 -6 -14 24 -13 37 1 46 11 19 21 -23 9 -30 8 -43
-8z"/>
<path d="M3685 1860 c3 -5 8 -10 11 -10 2 0 4 5 4 10 0 6 -5 10 -11 10 -5 0
-7 -4 -4 -10z"/>
<path d="M2935 1840 c-3 -5 -3 -10 2 -10 4 0 1 -4 -7 -10 -25 -16 -3 -22 26
-7 27 14 27 15 6 26 -14 7 -23 8 -27 1z"/>
<path d="M3277 1811 c3 -12 9 -21 14 -21 14 0 11 16 -5 29 -12 10 -13 8 -9 -8z"/>
<path d="M3715 1820 c3 -5 13 -10 21 -10 8 0 12 5 9 10 -3 6 -13 10 -21 10 -8
0 -12 -4 -9 -10z"/>
<path d="M1040 1810 c-8 -5 -12 -11 -9 -14 2 -3 11 -1 19 4 8 5 12 11 9 14 -2
3 -11 1 -19 -4z"/>
<path d="M3775 1810 c-3 -5 -1 -10 4 -10 6 0 11 5 11 10 0 6 -2 10 -4 10 -3 0
-8 -4 -11 -10z"/>
<path d="M3015 1800 c-3 -5 -1 -10 4 -10 6 0 11 5 11 10 0 6 -2 10 -4 10 -3 0
-8 -4 -11 -10z"/>
<path d="M3540 1796 c0 -9 7 -16 16 -16 17 0 14 22 -4 28 -7 2 -12 -3 -12 -12z"/>
<path d="M3800 1800 c0 -5 5 -10 10 -10 6 0 10 5 10 10 0 6 -4 10 -10 10 -5 0
-10 -4 -10 -10z"/>
<path d="M1045 1781 c-3 -5 -1 -12 5 -16 5 -3 10 1 10 9 0 18 -6 21 -15 7z"/>
<path d="M2875 1780 c3 -5 8 -10 11 -10 2 0 4 5 4 10 0 6 -5 10 -11 10 -5 0
-7 -4 -4 -10z"/>
<path d="M2910 1779 c0 -5 5 -7 10 -4 6 3 10 8 10 11 0 2 -4 4 -10 4 -5 0 -10
-5 -10 -11z"/>
<path d="M3603 1783 c-15 -5 -17 -23 -4 -23 5 0 11 7 15 15 3 8 4 15 3 14 -1
0 -8 -3 -14 -6z"/>
<path d="M3735 1780 c-3 -5 -1 -10 4 -10 6 0 11 5 11 10 0 6 -2 10 -4 10 -3 0
-8 -4 -11 -10z"/>
<path d="M2970 1769 c0 -5 5 -7 10 -4 6 3 10 8 10 11 0 2 -4 4 -10 4 -5 0 -10
-5 -10 -11z"/>
<path d="M3200 1765 c-17 -21 -8 -28 15 -11 11 8 14 15 8 19 -6 4 -16 0 -23
-8z"/>
<path d="M3683 1762 c0 -12 5 -22 9 -22 11 0 10 12 -2 30 -7 12 -9 10 -7 -8z"/>
<path d="M3510 1760 c0 -5 5 -10 10 -10 6 0 10 5 10 10 0 6 -4 10 -10 10 -5 0
-10 -4 -10 -10z"/>
<path d="M3545 1750 c-7 -12 2 -30 16 -30 12 0 12 27 0 35 -5 3 -12 1 -16 -5z"/>
<path d="M3280 1740 c0 -5 5 -10 10 -10 6 0 10 5 10 10 0 6 -4 10 -10 10 -5 0
-10 -4 -10 -10z"/>
<path d="M3750 1740 c0 -5 5 -10 10 -10 6 0 10 5 10 10 0 6 -4 10 -10 10 -5 0
-10 -4 -10 -10z"/>
<path d="M2960 1714 c0 -8 -4 -12 -10 -9 -5 3 -10 1 -10 -4 0 -14 13 -14 28 1
15 15 16 28 2 28 -5 0 -10 -7 -10 -16z"/>
<path d="M3480 1716 c0 -8 4 -17 9 -21 6 -3 9 4 8 15 -1 23 -17 28 -17 6z"/>
<path d="M3516 1685 c4 -8 8 -15 10 -15 2 0 4 7 4 15 0 8 -4 15 -10 15 -5 0
-7 -7 -4 -15z"/>
<path d="M3893 1687 c-35 -12 -44 -27 -15 -27 33 0 62 12 62 26 0 16 -2 16
-47 1z"/>
<path d="M1340 1680 c0 -5 4 -10 9 -10 6 0 13 5 16 10 3 6 -1 10 -9 10 -9 0
-16 -4 -16 -10z"/>
<path d="M2938 1660 c-18 -21 -13 -26 11 -11 7 5 12 14 10 20 -3 7 -11 3 -21
-9z"/>
<path d="M3780 1670 c0 -5 5 -10 10 -10 6 0 10 5 10 10 0 6 -4 10 -10 10 -5 0
-10 -4 -10 -10z"/>
<path d="M3260 1629 c0 -5 5 -7 10 -4 6 3 10 8 10 11 0 2 -4 4 -10 4 -5 0 -10
-5 -10 -11z"/>
<path d="M3595 1630 c4 -6 11 -8 16 -5 14 9 11 15 -7 15 -8 0 -12 -5 -9 -10z"/>
<path d="M1138 1619 c-3 -10 -25 -17 -58 -18 -11 -1 -10 -5 4 -18 13 -13 20
-15 23 -5 3 6 9 12 15 12 10 0 38 25 38 34 0 10 -18 6 -22 -5z"/>
<path d="M3666 1615 c-3 -9 0 -15 9 -15 9 0 12 6 9 15 -4 8 -7 15 -9 15 -2 0
-5 -7 -9 -15z"/>
<path d="M3700 1621 c0 -21 13 -41 27 -41 10 0 13 6 9 16 -3 9 -6 20 -6 25 0
5 -7 9 -15 9 -8 0 -15 -4 -15 -9z"/>
<path d="M2867 1613 c-4 -3 -7 -15 -7 -26 0 -16 3 -17 15 -7 8 7 15 19 15 26
0 15 -12 19 -23 7z"/>
<path d="M3810 1610 c0 -5 5 -10 10 -10 6 0 10 5 10 10 0 6 -4 10 -10 10 -5 0
-10 -4 -10 -10z"/>
<path d="M3880 1610 c0 -5 5 -10 10 -10 6 0 10 5 10 10 0 6 -4 10 -10 10 -5 0
-10 -4 -10 -10z"/>
<path d="M3445 1600 c-3 -5 -1 -10 4 -10 6 0 11 5 11 10 0 6 -2 10 -4 10 -3 0
-8 -4 -11 -10z"/>
<path d="M3840 1584 c0 -8 5 -12 10 -9 6 4 8 11 5 16 -9 14 -15 11 -15 -7z"/>
<path d="M1141 1545 c-7 -25 -5 -48 5 -82 8 -26 14 -48 14 -48 -1 0 2 -8 5
-17 4 -10 15 -20 26 -23 10 -4 19 -14 19 -23 0 -12 3 -13 12 -4 7 7 21 12 33
12 12 0 26 5 33 12 16 16 15 55 0 62 -10 3 -9 8 4 18 9 8 20 26 23 41 7 25 5
27 -23 27 -24 0 -31 -5 -31 -20 -1 -11 -1 -29 -2 -41 0 -24 -22 -20 -27 6 -3
10 0 15 7 11 6 -4 11 -3 11 2 0 16 -13 22 -27 11 -10 -9 -13 -6 -13 13 0 36
-23 78 -42 78 -11 0 -20 -12 -27 -35z"/>
<path d="M3720 1550 c0 -11 5 -20 10 -20 6 0 10 9 10 20 0 11 -4 20 -10 20 -5
0 -10 -9 -10 -20z"/>
<path d="M3790 1560 c0 -5 5 -10 11 -10 5 0 7 5 4 10 -3 6 -8 10 -11 10 -2 0
-4 -4 -4 -10z"/>
<path d="M3680 1550 c0 -5 7 -10 15 -10 8 0 15 5 15 10 0 6 -7 10 -15 10 -8 0
-15 -4 -15 -10z"/>
<path d="M3870 1515 c0 -8 5 -15 10 -15 6 0 10 7 10 15 0 8 -4 15 -10 15 -5 0
-10 -7 -10 -15z"/>
<path d="M1100 1510 c0 -5 5 -10 11 -10 5 0 7 5 4 10 -3 6 -8 10 -11 10 -2 0
-4 -4 -4 -10z"/>
<path d="M3809 1474 c-7 -8 -21 -13 -31 -11 -10 3 -18 0 -18 -8 0 -14 51 -28
61 -17 4 4 10 17 14 30 7 25 -7 29 -26 6z"/>
<path d="M1314 1438 c-4 -5 -3 -12 0 -15 7 -8 36 4 36 15 0 11 -29 11 -36 0z"/>
<path d="M3875 1440 c-3 -5 -1 -10 4 -10 6 0 11 5 11 10 0 6 -2 10 -4 10 -3 0
-8 -4 -11 -10z"/>
<path d="M3565 1420 c-4 -6 -11 -8 -16 -5 -12 8 -11 5 2 -36 7 -19 22 -48 35
-66 13 -17 20 -33 16 -36 -4 -2 -2 -2 5 -1 7 2 15 -1 18 -5 9 -16 54 -21 82
-9 15 6 31 11 35 10 15 -3 -5 28 -21 33 -10 3 -35 21 -57 41 l-39 36 30 -6
c22 -5 26 -4 15 4 -8 5 -21 10 -27 10 -7 0 -22 9 -33 20 -22 22 -36 25 -45 10z"/>
<path d="M3696 1419 c3 -5 11 -9 19 -9 8 0 16 4 19 9 3 5 -5 9 -19 9 -14 0
-22 -4 -19 -9z"/>
<path d="M1310 1401 c0 -6 5 -13 10 -16 6 -3 10 1 10 9 0 9 -4 16 -10 16 -5 0
-10 -4 -10 -9z"/>
<path d="M3802 1391 c2 -7 7 -12 11 -12 12 1 9 15 -3 20 -7 2 -11 -2 -8 -8z"/>
<path d="M1330 1356 c-7 -13 -10 -30 -8 -38 3 -8 11 -1 21 19 9 17 13 34 8 37
-4 3 -14 -5 -21 -18z"/>
<path d="M3730 1370 c0 -5 5 -10 10 -10 6 0 10 5 10 10 0 6 -4 10 -10 10 -5 0
-10 -4 -10 -10z"/>
<path d="M1126 1362 c-3 -6 -1 -14 5 -17 15 -10 25 3 12 16 -7 7 -13 7 -17 1z"/>
<path d="M1170 1360 c0 -5 5 -10 10 -10 6 0 10 5 10 10 0 6 -4 10 -10 10 -5 0
-10 -4 -10 -10z"/>
<path d="M3825 1350 c3 -5 14 -10 23 -10 15 0 15 2 2 10 -20 13 -33 13 -25 0z"/>
<path d="M1260 1330 c0 -5 5 -10 11 -10 5 0 7 5 4 10 -3 6 -8 10 -11 10 -2 0
-4 -4 -4 -10z"/>
<path d="M1207 1303 c-4 -3 -7 -17 -7 -30 0 -21 3 -22 20 -13 11 6 18 15 15
21 -4 5 1 9 9 9 9 0 16 -7 16 -15 0 -9 6 -12 15 -9 26 10 17 31 -16 38 -39 8
-44 8 -52 -1z"/>
<path d="M3760 1300 c0 -5 5 -10 10 -10 6 0 10 5 10 10 0 6 -4 10 -10 10 -5 0
-10 -4 -10 -10z"/>
<path d="M3626 1211 c-3 -5 1 -11 9 -15 9 -3 15 0 15 9 0 16 -16 20 -24 6z"/>
<path d="M3730 1210 c0 -5 5 -10 10 -10 6 0 10 5 10 10 0 6 -4 10 -10 10 -5 0
-10 -4 -10 -10z"/>
</g>
</svg>
